<svg width="16" height="16" viewBox="0 0 512 512" fill="none" xmlns="http://www.w3.org/2000/svg">
    <rect width="512" height="512" rx="100" fill="#1a1a2e"/>
    <circle cx="256" cy="256" r="180" fill="#16213e"/>
    <circle cx="256" cy="256" r="140" fill="#0f3460"/>
    <path d="M256 120 A136 136 0 0 1 256 392 A136 136 0 0 1 256 120 M256 140 A116 116 0 0 0 256 372 A116 116 0 0 0 256 140" fill="#e94560"/>
    <circle cx="180" cy="180" r="8" fill="#e94560"/>
    <circle cx="332" cy="160" r="6" fill="#e94560"/>
    <circle cx="160" cy="320" r="5" fill="#e94560"/>
    <circle cx="320" cy="320" r="7" fill="#e94560"/>
    <path d="M200 220 L280 220 L200 280 L280 280" stroke="#e94560" stroke-width="8" stroke-linecap="round" stroke-linejoin="round"/>
  </svg>